<svg width="379" height="51" viewBox="0 0 379 51" fill="none" xmlns="http://www.w3.org/2000/svg">
<rect x="0.5" y="0.5" width="378" height="50" rx="15.5" fill="white"/>
<rect x="0.5" y="0.5" width="378" height="50" rx="15.5" stroke="#F2F2F2"/>
<path d="M51.5 0.5V50.5H16C7.43959 50.5 0.5 43.5604 0.5 35V16C0.5 7.43959 7.43959 0.500001 16 0.5H51.5Z" fill="#F2F2F2" stroke="#F2F2F2"/>
<path d="M25.1359 33.5955C23.2328 31.3326 19 25.8481 19 22.7675C19 19.0299 22.134 16 26 16C29.8646 16 33 19.0299 33 22.7675C33 25.8481 28.7344 31.3326 26.8641 33.5955C26.4156 34.1348 25.5844 34.1348 25.1359 33.5955ZM26 25.0234C27.287 25.0234 28.3333 24.0117 28.3333 22.7675C28.3333 21.5233 27.287 20.5117 26 20.5117C24.713 20.5117 23.6667 21.5233 23.6667 22.7675C23.6667 24.0117 24.713 25.0234 26 25.0234Z" fill="black"/>
<path d="M86.9796 32V23.612L83.7036 29.858H82.3176L79.0416 23.612V32H76.5576V19.22H79.2216L83.0016 26.492L86.8176 19.22H89.4636V32H86.9796ZM91.1443 29.21C91.1443 28.598 91.3123 28.064 91.6483 27.608C91.9963 27.14 92.4763 26.78 93.0883 26.528C93.7003 26.276 94.4023 26.15 95.1943 26.15C95.5903 26.15 95.9923 26.18 96.4003 26.24C96.8083 26.3 97.1623 26.396 97.4623 26.528V26.024C97.4623 25.424 97.2823 24.962 96.9223 24.638C96.5743 24.314 96.0523 24.152 95.3563 24.152C94.8403 24.152 94.3483 24.242 93.8803 24.422C93.4123 24.602 92.9203 24.866 92.4043 25.214L91.6303 23.63C92.2543 23.222 92.8903 22.916 93.5383 22.712C94.1983 22.508 94.8883 22.406 95.6083 22.406C96.9523 22.406 97.9963 22.742 98.7403 23.414C99.4963 24.086 99.8743 25.046 99.8743 26.294V29.3C99.8743 29.552 99.9163 29.732 100 29.84C100.096 29.948 100.246 30.014 100.45 30.038V32C100.234 32.036 100.036 32.066 99.8563 32.09C99.6883 32.114 99.5443 32.126 99.4243 32.126C98.9443 32.126 98.5783 32.018 98.3263 31.802C98.0863 31.586 97.9363 31.322 97.8763 31.01L97.8223 30.524C97.4143 31.052 96.9043 31.46 96.2923 31.748C95.6803 32.036 95.0563 32.18 94.4203 32.18C93.7963 32.18 93.2323 32.054 92.7283 31.802C92.2363 31.538 91.8463 31.184 91.5583 30.74C91.2823 30.284 91.1443 29.774 91.1443 29.21ZM97.0123 29.696C97.1443 29.552 97.2523 29.408 97.3363 29.264C97.4203 29.12 97.4623 28.988 97.4623 28.868V27.914C97.1743 27.794 96.8623 27.704 96.5263 27.644C96.1903 27.572 95.8723 27.536 95.5723 27.536C94.9483 27.536 94.4323 27.674 94.0243 27.95C93.6283 28.214 93.4303 28.568 93.4303 29.012C93.4303 29.252 93.4963 29.48 93.6283 29.696C93.7603 29.912 93.9523 30.086 94.2043 30.218C94.4563 30.35 94.7563 30.416 95.1043 30.416C95.4643 30.416 95.8183 30.35 96.1663 30.218C96.5143 30.074 96.7963 29.9 97.0123 29.696ZM107.744 24.656C107.012 24.656 106.358 24.8 105.782 25.088C105.206 25.364 104.792 25.766 104.54 26.294V32H102.128V22.568H104.342V24.584C104.678 23.936 105.104 23.426 105.62 23.054C106.136 22.682 106.682 22.478 107.258 22.442C107.39 22.442 107.492 22.442 107.564 22.442C107.636 22.442 107.696 22.448 107.744 22.46V24.656ZM112.563 32.18C111.759 32.18 110.991 32.048 110.259 31.784C109.527 31.52 108.897 31.13 108.369 30.614L109.233 29.048C109.797 29.504 110.349 29.84 110.889 30.056C111.441 30.272 111.969 30.38 112.473 30.38C112.941 30.38 113.313 30.296 113.589 30.128C113.877 29.96 114.021 29.708 114.021 29.372C114.021 29.144 113.943 28.97 113.787 28.85C113.631 28.718 113.403 28.604 113.103 28.508C112.815 28.412 112.461 28.304 112.041 28.184C111.345 27.956 110.763 27.734 110.295 27.518C109.827 27.302 109.473 27.032 109.233 26.708C109.005 26.372 108.891 25.946 108.891 25.43C108.891 24.806 109.047 24.272 109.359 23.828C109.683 23.372 110.127 23.018 110.691 22.766C111.267 22.514 111.939 22.388 112.707 22.388C113.379 22.388 114.015 22.496 114.615 22.712C115.215 22.916 115.761 23.252 116.253 23.72L115.281 25.25C114.801 24.878 114.345 24.608 113.913 24.44C113.481 24.26 113.043 24.17 112.599 24.17C112.347 24.17 112.107 24.2 111.879 24.26C111.663 24.32 111.483 24.422 111.339 24.566C111.207 24.698 111.141 24.89 111.141 25.142C111.141 25.37 111.201 25.55 111.321 25.682C111.453 25.802 111.645 25.91 111.897 26.006C112.161 26.102 112.479 26.21 112.851 26.33C113.607 26.546 114.243 26.768 114.759 26.996C115.287 27.224 115.683 27.506 115.947 27.842C116.211 28.166 116.343 28.616 116.343 29.192C116.343 30.128 116.001 30.86 115.317 31.388C114.633 31.916 113.715 32.18 112.563 32.18ZM122.358 32.18C121.602 32.18 120.918 32.054 120.306 31.802C119.694 31.538 119.172 31.184 118.74 30.74C118.308 30.284 117.972 29.768 117.732 29.192C117.504 28.604 117.39 27.986 117.39 27.338C117.39 26.438 117.588 25.616 117.984 24.872C118.392 24.128 118.968 23.534 119.712 23.09C120.468 22.634 121.356 22.406 122.376 22.406C123.408 22.406 124.29 22.634 125.022 23.09C125.754 23.534 126.312 24.128 126.696 24.872C127.092 25.604 127.29 26.396 127.29 27.248C127.29 27.392 127.284 27.542 127.272 27.698C127.26 27.842 127.248 27.962 127.236 28.058H119.946C119.994 28.538 120.132 28.958 120.36 29.318C120.6 29.678 120.9 29.954 121.26 30.146C121.632 30.326 122.028 30.416 122.448 30.416C122.928 30.416 123.378 30.302 123.798 30.074C124.23 29.834 124.524 29.522 124.68 29.138L126.75 29.714C126.522 30.194 126.192 30.62 125.76 30.992C125.34 31.364 124.842 31.658 124.266 31.874C123.69 32.078 123.054 32.18 122.358 32.18ZM119.892 26.528H124.824C124.776 26.048 124.638 25.634 124.41 25.286C124.194 24.926 123.906 24.65 123.546 24.458C123.186 24.254 122.784 24.152 122.34 24.152C121.908 24.152 121.512 24.254 121.152 24.458C120.804 24.65 120.516 24.926 120.288 25.286C120.072 25.634 119.94 26.048 119.892 26.528ZM128.759 32V22.568H131.171V32H128.759ZM128.759 21.254V18.86H131.171V21.254H128.759ZM133.329 18.86H135.741V28.976C135.741 29.408 135.813 29.702 135.957 29.858C136.101 30.002 136.299 30.074 136.551 30.074C136.743 30.074 136.941 30.05 137.145 30.002C137.349 29.954 137.529 29.894 137.685 29.822L138.009 31.658C137.685 31.814 137.307 31.934 136.875 32.018C136.443 32.102 136.053 32.144 135.705 32.144C134.949 32.144 134.361 31.946 133.941 31.55C133.533 31.142 133.329 30.566 133.329 29.822V18.86ZM139.042 18.86H141.454V28.976C141.454 29.408 141.526 29.702 141.67 29.858C141.814 30.002 142.012 30.074 142.264 30.074C142.456 30.074 142.654 30.05 142.858 30.002C143.062 29.954 143.242 29.894 143.398 29.822L143.722 31.658C143.398 31.814 143.02 31.934 142.588 32.018C142.156 32.102 141.766 32.144 141.418 32.144C140.662 32.144 140.074 31.946 139.654 31.55C139.246 31.142 139.042 30.566 139.042 29.822V18.86ZM149.147 32.18C148.391 32.18 147.707 32.054 147.095 31.802C146.483 31.538 145.961 31.184 145.529 30.74C145.097 30.284 144.761 29.768 144.521 29.192C144.293 28.604 144.179 27.986 144.179 27.338C144.179 26.438 144.377 25.616 144.773 24.872C145.181 24.128 145.757 23.534 146.501 23.09C147.257 22.634 148.145 22.406 149.165 22.406C150.197 22.406 151.079 22.634 151.811 23.09C152.543 23.534 153.101 24.128 153.485 24.872C153.881 25.604 154.079 26.396 154.079 27.248C154.079 27.392 154.073 27.542 154.061 27.698C154.049 27.842 154.037 27.962 154.025 28.058H146.735C146.783 28.538 146.921 28.958 147.149 29.318C147.389 29.678 147.689 29.954 148.049 30.146C148.421 30.326 148.817 30.416 149.237 30.416C149.717 30.416 150.167 30.302 150.587 30.074C151.019 29.834 151.313 29.522 151.469 29.138L153.539 29.714C153.311 30.194 152.981 30.62 152.549 30.992C152.129 31.364 151.631 31.658 151.055 31.874C150.479 32.078 149.843 32.18 149.147 32.18ZM146.681 26.528H151.613C151.565 26.048 151.427 25.634 151.199 25.286C150.983 24.926 150.695 24.65 150.335 24.458C149.975 24.254 149.573 24.152 149.129 24.152C148.697 24.152 148.301 24.254 147.941 24.458C147.593 24.65 147.305 24.926 147.077 25.286C146.861 25.634 146.729 26.048 146.681 26.528ZM155.764 34.07L156.25 31.928H155.494V29.408H157.582V31.928L156.844 34.07H155.764ZM164.29 32V19.22H172.876V21.398H166.774V24.692H171.85V26.708H166.774V32H164.29ZM179.533 24.656C178.801 24.656 178.147 24.8 177.571 25.088C176.995 25.364 176.581 25.766 176.329 26.294V32H173.917V22.568H176.131V24.584C176.467 23.936 176.893 23.426 177.409 23.054C177.925 22.682 178.471 22.478 179.047 22.442C179.179 22.442 179.281 22.442 179.353 22.442C179.425 22.442 179.485 22.448 179.533 22.46V24.656ZM180.178 29.21C180.178 28.598 180.346 28.064 180.682 27.608C181.03 27.14 181.51 26.78 182.122 26.528C182.734 26.276 183.436 26.15 184.228 26.15C184.624 26.15 185.026 26.18 185.434 26.24C185.842 26.3 186.196 26.396 186.496 26.528V26.024C186.496 25.424 186.316 24.962 185.956 24.638C185.608 24.314 185.086 24.152 184.39 24.152C183.874 24.152 183.382 24.242 182.914 24.422C182.446 24.602 181.954 24.866 181.438 25.214L180.664 23.63C181.288 23.222 181.924 22.916 182.572 22.712C183.232 22.508 183.922 22.406 184.642 22.406C185.986 22.406 187.03 22.742 187.774 23.414C188.53 24.086 188.908 25.046 188.908 26.294V29.3C188.908 29.552 188.95 29.732 189.034 29.84C189.13 29.948 189.28 30.014 189.484 30.038V32C189.268 32.036 189.07 32.066 188.89 32.09C188.722 32.114 188.578 32.126 188.458 32.126C187.978 32.126 187.612 32.018 187.36 31.802C187.12 31.586 186.97 31.322 186.91 31.01L186.856 30.524C186.448 31.052 185.938 31.46 185.326 31.748C184.714 32.036 184.09 32.18 183.454 32.18C182.83 32.18 182.266 32.054 181.762 31.802C181.27 31.538 180.88 31.184 180.592 30.74C180.316 30.284 180.178 29.774 180.178 29.21ZM186.046 29.696C186.178 29.552 186.286 29.408 186.37 29.264C186.454 29.12 186.496 28.988 186.496 28.868V27.914C186.208 27.794 185.896 27.704 185.56 27.644C185.224 27.572 184.906 27.536 184.606 27.536C183.982 27.536 183.466 27.674 183.058 27.95C182.662 28.214 182.464 28.568 182.464 29.012C182.464 29.252 182.53 29.48 182.662 29.696C182.794 29.912 182.986 30.086 183.238 30.218C183.49 30.35 183.79 30.416 184.138 30.416C184.498 30.416 184.852 30.35 185.2 30.218C185.548 30.074 185.83 29.9 186.046 29.696ZM199.927 32H197.515V26.708C197.515 25.952 197.383 25.4 197.119 25.052C196.855 24.704 196.489 24.53 196.021 24.53C195.697 24.53 195.367 24.614 195.031 24.782C194.707 24.95 194.413 25.184 194.149 25.484C193.885 25.772 193.693 26.108 193.573 26.492V32H191.161V22.568H193.339V24.314C193.579 23.906 193.885 23.564 194.257 23.288C194.629 23 195.055 22.784 195.535 22.64C196.027 22.484 196.543 22.406 197.083 22.406C197.671 22.406 198.151 22.514 198.523 22.73C198.907 22.934 199.195 23.216 199.387 23.576C199.591 23.924 199.729 24.32 199.801 24.764C199.885 25.208 199.927 25.658 199.927 26.114V32ZM206.417 32.18C205.649 32.18 204.959 32.054 204.347 31.802C203.735 31.538 203.213 31.178 202.781 30.722C202.349 30.254 202.013 29.726 201.773 29.138C201.545 28.55 201.431 27.932 201.431 27.284C201.431 26.396 201.629 25.586 202.025 24.854C202.433 24.11 203.009 23.516 203.753 23.072C204.497 22.628 205.379 22.406 206.399 22.406C207.419 22.406 208.295 22.628 209.027 23.072C209.759 23.516 210.305 24.098 210.665 24.818L208.307 25.538C208.103 25.19 207.833 24.926 207.497 24.746C207.161 24.554 206.789 24.458 206.381 24.458C205.925 24.458 205.505 24.578 205.121 24.818C204.749 25.046 204.455 25.376 204.239 25.808C204.023 26.228 203.915 26.72 203.915 27.284C203.915 27.836 204.023 28.328 204.239 28.76C204.467 29.18 204.767 29.516 205.139 29.768C205.511 30.008 205.925 30.128 206.381 30.128C206.669 30.128 206.939 30.08 207.191 29.984C207.455 29.888 207.689 29.756 207.893 29.588C208.097 29.42 208.247 29.228 208.343 29.012L210.701 29.732C210.485 30.2 210.167 30.62 209.747 30.992C209.339 31.364 208.853 31.658 208.289 31.874C207.737 32.078 207.113 32.18 206.417 32.18ZM216.471 32.18C215.715 32.18 215.031 32.054 214.419 31.802C213.807 31.538 213.285 31.184 212.853 30.74C212.421 30.284 212.085 29.768 211.845 29.192C211.617 28.604 211.503 27.986 211.503 27.338C211.503 26.438 211.701 25.616 212.097 24.872C212.505 24.128 213.081 23.534 213.825 23.09C214.581 22.634 215.469 22.406 216.489 22.406C217.521 22.406 218.403 22.634 219.135 23.09C219.867 23.534 220.425 24.128 220.809 24.872C221.205 25.604 221.403 26.396 221.403 27.248C221.403 27.392 221.397 27.542 221.385 27.698C221.373 27.842 221.361 27.962 221.349 28.058H214.059C214.107 28.538 214.245 28.958 214.473 29.318C214.713 29.678 215.013 29.954 215.373 30.146C215.745 30.326 216.141 30.416 216.561 30.416C217.041 30.416 217.491 30.302 217.911 30.074C218.343 29.834 218.637 29.522 218.793 29.138L220.863 29.714C220.635 30.194 220.305 30.62 219.873 30.992C219.453 31.364 218.955 31.658 218.379 31.874C217.803 32.078 217.167 32.18 216.471 32.18ZM214.005 26.528H218.937C218.889 26.048 218.751 25.634 218.523 25.286C218.307 24.926 218.019 24.65 217.659 24.458C217.299 24.254 216.897 24.152 216.453 24.152C216.021 24.152 215.625 24.254 215.265 24.458C214.917 24.65 214.629 24.926 214.401 25.286C214.185 25.634 214.053 26.048 214.005 26.528Z" fill="black"/>
<path d="M363 0.5C371.56 0.5 378.5 7.43959 378.5 16V35C378.5 43.5604 371.56 50.5 363 50.5H245.5V0.5H363Z" fill="#0065FC"/>
<path d="M363 0.5C371.56 0.5 378.5 7.43959 378.5 16V35C378.5 43.5604 371.56 50.5 363 50.5H245.5V0.5H363Z" stroke="#0065FC"/>
<path d="M263.419 32V19.22H269.071C269.659 19.22 270.199 19.34 270.691 19.58C271.195 19.82 271.627 20.144 271.987 20.552C272.359 20.96 272.641 21.416 272.833 21.92C273.037 22.424 273.139 22.94 273.139 23.468C273.139 24.008 273.043 24.53 272.851 25.034C272.671 25.526 272.407 25.958 272.059 26.33C271.711 26.702 271.303 26.99 270.835 27.194L273.751 32H271.015L268.387 27.716H265.903V32H263.419ZM265.903 25.538H269.017C269.329 25.538 269.605 25.448 269.845 25.268C270.085 25.076 270.277 24.824 270.421 24.512C270.565 24.2 270.637 23.852 270.637 23.468C270.637 23.06 270.553 22.706 270.385 22.406C270.217 22.094 270.001 21.848 269.737 21.668C269.485 21.488 269.209 21.398 268.909 21.398H265.903V25.538ZM279.213 32.18C278.457 32.18 277.773 32.054 277.161 31.802C276.549 31.538 276.027 31.184 275.595 30.74C275.163 30.284 274.827 29.768 274.587 29.192C274.359 28.604 274.245 27.986 274.245 27.338C274.245 26.438 274.443 25.616 274.839 24.872C275.247 24.128 275.823 23.534 276.567 23.09C277.323 22.634 278.211 22.406 279.231 22.406C280.263 22.406 281.145 22.634 281.877 23.09C282.609 23.534 283.167 24.128 283.551 24.872C283.947 25.604 284.145 26.396 284.145 27.248C284.145 27.392 284.139 27.542 284.127 27.698C284.115 27.842 284.103 27.962 284.091 28.058H276.801C276.849 28.538 276.987 28.958 277.215 29.318C277.455 29.678 277.755 29.954 278.115 30.146C278.487 30.326 278.883 30.416 279.303 30.416C279.783 30.416 280.233 30.302 280.653 30.074C281.085 29.834 281.379 29.522 281.535 29.138L283.605 29.714C283.377 30.194 283.047 30.62 282.615 30.992C282.195 31.364 281.697 31.658 281.121 31.874C280.545 32.078 279.909 32.18 279.213 32.18ZM276.747 26.528H281.679C281.631 26.048 281.493 25.634 281.265 25.286C281.049 24.926 280.761 24.65 280.401 24.458C280.041 24.254 279.639 24.152 279.195 24.152C278.763 24.152 278.367 24.254 278.007 24.458C277.659 24.65 277.371 24.926 277.143 25.286C276.927 25.634 276.795 26.048 276.747 26.528ZM290.007 32.18C289.239 32.18 288.549 32.054 287.937 31.802C287.325 31.538 286.803 31.178 286.371 30.722C285.939 30.254 285.603 29.726 285.363 29.138C285.135 28.55 285.021 27.932 285.021 27.284C285.021 26.396 285.219 25.586 285.615 24.854C286.023 24.11 286.599 23.516 287.343 23.072C288.087 22.628 288.969 22.406 289.989 22.406C291.009 22.406 291.885 22.628 292.617 23.072C293.349 23.516 293.895 24.098 294.255 24.818L291.897 25.538C291.693 25.19 291.423 24.926 291.087 24.746C290.751 24.554 290.379 24.458 289.971 24.458C289.515 24.458 289.095 24.578 288.711 24.818C288.339 25.046 288.045 25.376 287.829 25.808C287.613 26.228 287.505 26.72 287.505 27.284C287.505 27.836 287.613 28.328 287.829 28.76C288.057 29.18 288.357 29.516 288.729 29.768C289.101 30.008 289.515 30.128 289.971 30.128C290.259 30.128 290.529 30.08 290.781 29.984C291.045 29.888 291.279 29.756 291.483 29.588C291.687 29.42 291.837 29.228 291.933 29.012L294.291 29.732C294.075 30.2 293.757 30.62 293.337 30.992C292.929 31.364 292.443 31.658 291.879 31.874C291.327 32.078 290.703 32.18 290.007 32.18ZM304.541 32H302.129V26.708C302.129 25.976 301.985 25.43 301.697 25.07C301.421 24.71 301.037 24.53 300.545 24.53C300.257 24.53 299.951 24.614 299.627 24.782C299.303 24.95 299.009 25.184 298.745 25.484C298.493 25.772 298.307 26.108 298.187 26.492V32H295.775V18.86H298.187V24.314C298.535 23.714 299.009 23.246 299.609 22.91C300.209 22.574 300.863 22.406 301.571 22.406C302.183 22.406 302.681 22.514 303.065 22.73C303.449 22.934 303.749 23.216 303.965 23.576C304.181 23.924 304.331 24.32 304.415 24.764C304.499 25.196 304.541 25.646 304.541 26.114V32ZM311.012 32.18C310.256 32.18 309.572 32.054 308.96 31.802C308.348 31.538 307.826 31.184 307.394 30.74C306.962 30.284 306.626 29.768 306.386 29.192C306.158 28.604 306.044 27.986 306.044 27.338C306.044 26.438 306.242 25.616 306.638 24.872C307.046 24.128 307.622 23.534 308.366 23.09C309.122 22.634 310.01 22.406 311.03 22.406C312.062 22.406 312.944 22.634 313.676 23.09C314.408 23.534 314.966 24.128 315.35 24.872C315.746 25.604 315.944 26.396 315.944 27.248C315.944 27.392 315.938 27.542 315.926 27.698C315.914 27.842 315.902 27.962 315.89 28.058H308.6C308.648 28.538 308.786 28.958 309.014 29.318C309.254 29.678 309.554 29.954 309.914 30.146C310.286 30.326 310.682 30.416 311.102 30.416C311.582 30.416 312.032 30.302 312.452 30.074C312.884 29.834 313.178 29.522 313.334 29.138L315.404 29.714C315.176 30.194 314.846 30.62 314.414 30.992C313.994 31.364 313.496 31.658 312.92 31.874C312.344 32.078 311.708 32.18 311.012 32.18ZM308.546 26.528H313.478C313.43 26.048 313.292 25.634 313.064 25.286C312.848 24.926 312.56 24.65 312.2 24.458C311.84 24.254 311.438 24.152 310.994 24.152C310.562 24.152 310.166 24.254 309.806 24.458C309.458 24.65 309.17 24.926 308.942 25.286C308.726 25.634 308.594 26.048 308.546 26.528ZM323.029 24.656C322.297 24.656 321.643 24.8 321.067 25.088C320.491 25.364 320.077 25.766 319.825 26.294V32H317.413V22.568H319.627V24.584C319.963 23.936 320.389 23.426 320.905 23.054C321.421 22.682 321.967 22.478 322.543 22.442C322.675 22.442 322.777 22.442 322.849 22.442C322.921 22.442 322.981 22.448 323.029 22.46V24.656ZM328.643 32.18C327.875 32.18 327.185 32.054 326.573 31.802C325.961 31.538 325.439 31.178 325.007 30.722C324.575 30.254 324.239 29.726 323.999 29.138C323.771 28.55 323.657 27.932 323.657 27.284C323.657 26.396 323.855 25.586 324.251 24.854C324.659 24.11 325.235 23.516 325.979 23.072C326.723 22.628 327.605 22.406 328.625 22.406C329.645 22.406 330.521 22.628 331.253 23.072C331.985 23.516 332.531 24.098 332.891 24.818L330.533 25.538C330.329 25.19 330.059 24.926 329.723 24.746C329.387 24.554 329.015 24.458 328.607 24.458C328.151 24.458 327.731 24.578 327.347 24.818C326.975 25.046 326.681 25.376 326.465 25.808C326.249 26.228 326.141 26.72 326.141 27.284C326.141 27.836 326.249 28.328 326.465 28.76C326.693 29.18 326.993 29.516 327.365 29.768C327.737 30.008 328.151 30.128 328.607 30.128C328.895 30.128 329.165 30.08 329.417 29.984C329.681 29.888 329.915 29.756 330.119 29.588C330.323 29.42 330.473 29.228 330.569 29.012L332.927 29.732C332.711 30.2 332.393 30.62 331.973 30.992C331.565 31.364 331.079 31.658 330.515 31.874C329.963 32.078 329.339 32.18 328.643 32.18ZM343.177 32H340.765V26.708C340.765 25.976 340.621 25.43 340.333 25.07C340.057 24.71 339.673 24.53 339.181 24.53C338.893 24.53 338.587 24.614 338.263 24.782C337.939 24.95 337.645 25.184 337.381 25.484C337.129 25.772 336.943 26.108 336.823 26.492V32H334.411V18.86H336.823V24.314C337.171 23.714 337.645 23.246 338.245 22.91C338.845 22.574 339.499 22.406 340.207 22.406C340.819 22.406 341.317 22.514 341.701 22.73C342.085 22.934 342.385 23.216 342.601 23.576C342.817 23.924 342.967 24.32 343.051 24.764C343.135 25.196 343.177 25.646 343.177 26.114V32ZM349.649 32.18C348.893 32.18 348.209 32.054 347.597 31.802C346.985 31.538 346.463 31.184 346.031 30.74C345.599 30.284 345.263 29.768 345.023 29.192C344.795 28.604 344.681 27.986 344.681 27.338C344.681 26.438 344.879 25.616 345.275 24.872C345.683 24.128 346.259 23.534 347.003 23.09C347.759 22.634 348.647 22.406 349.667 22.406C350.699 22.406 351.581 22.634 352.313 23.09C353.045 23.534 353.603 24.128 353.987 24.872C354.383 25.604 354.581 26.396 354.581 27.248C354.581 27.392 354.575 27.542 354.563 27.698C354.551 27.842 354.539 27.962 354.527 28.058H347.237C347.285 28.538 347.423 28.958 347.651 29.318C347.891 29.678 348.191 29.954 348.551 30.146C348.923 30.326 349.319 30.416 349.739 30.416C350.219 30.416 350.669 30.302 351.089 30.074C351.521 29.834 351.815 29.522 351.971 29.138L354.041 29.714C353.813 30.194 353.483 30.62 353.051 30.992C352.631 31.364 352.133 31.658 351.557 31.874C350.981 32.078 350.345 32.18 349.649 32.18ZM347.183 26.528H352.115C352.067 26.048 351.929 25.634 351.701 25.286C351.485 24.926 351.197 24.65 350.837 24.458C350.477 24.254 350.075 24.152 349.631 24.152C349.199 24.152 348.803 24.254 348.443 24.458C348.095 24.65 347.807 24.926 347.579 25.286C347.363 25.634 347.231 26.048 347.183 26.528ZM361.666 24.656C360.934 24.656 360.28 24.8 359.704 25.088C359.128 25.364 358.714 25.766 358.462 26.294V32H356.05V22.568H358.264V24.584C358.6 23.936 359.026 23.426 359.542 23.054C360.058 22.682 360.604 22.478 361.18 22.442C361.312 22.442 361.414 22.442 361.486 22.442C361.558 22.442 361.618 22.448 361.666 22.46V24.656Z" fill="white"/>
</svg>
